<svg width="720" height="1280" viewBox="0 0 720 1280" fill="none" xmlns="http://www.w3.org/2000/svg">
<path d="M201.934 469.496V480H157.898V409.3H168.806V469.496H201.934ZM259.817 473.031H259.716C257.562 475.118 254.599 476.97 250.828 478.586C247.058 480.202 243.119 481.01 239.011 481.01C233.49 481.01 228.608 479.865 224.366 477.576C220.192 475.219 216.926 472.021 214.569 467.981C212.213 463.874 211.034 459.228 211.034 454.043C211.034 448.118 212.28 443.068 214.771 438.893C217.263 434.651 220.562 431.419 224.669 429.197C228.777 426.908 233.254 425.763 238.102 425.763C242.546 425.763 246.586 426.874 250.222 429.096C253.858 431.251 256.754 434.247 258.908 438.085C261.063 441.923 262.14 446.401 262.14 451.518L262.039 455.962H221.437C222.043 460.743 223.996 464.547 227.295 467.375C230.662 470.136 234.904 471.516 240.021 471.516C243.725 471.516 246.721 470.843 249.01 469.496C251.3 468.082 253.185 466.735 254.666 465.456L259.817 473.031ZM238.102 435.358C234.13 435.358 230.662 436.301 227.699 438.186C224.737 440.004 222.784 443.169 221.841 447.68H251.535V446.973C251.333 444.684 250.559 442.664 249.212 440.913C247.933 439.162 246.317 437.816 244.364 436.873C242.412 435.863 240.324 435.358 238.102 435.358ZM323.34 426.975V480H312.836V471.819C311.22 474.041 308.83 476.128 305.665 478.081C302.5 480.034 298.831 481.01 294.656 481.01C290.212 481.01 286.138 479.832 282.435 477.475C278.799 475.118 275.904 471.853 273.749 467.678C271.594 463.503 270.517 458.723 270.517 453.336C270.517 447.949 271.628 443.202 273.85 439.095C276.072 434.92 279.136 431.688 283.041 429.399C286.946 427.042 291.39 425.864 296.373 425.864C300.076 425.864 303.308 426.672 306.069 428.288C308.897 429.904 311.153 431.789 312.836 433.944V426.975H323.34ZM297.08 471.415C300.312 471.415 303.14 470.641 305.564 469.092C307.988 467.476 309.873 465.321 311.22 462.628C312.567 459.867 313.24 456.77 313.24 453.336C313.24 449.969 312.567 446.939 311.22 444.246C309.873 441.553 307.988 439.432 305.564 437.883C303.14 436.267 300.312 435.459 297.08 435.459C293.983 435.459 291.222 436.233 288.798 437.782C286.374 439.331 284.489 441.452 283.142 444.145C281.795 446.838 281.122 449.902 281.122 453.336C281.122 456.77 281.795 459.867 283.142 462.628C284.489 465.321 286.374 467.476 288.798 469.092C291.222 470.641 293.983 471.415 297.08 471.415ZM388.062 405.26V480H377.659V472.526C376.11 474.613 373.821 476.566 370.791 478.384C367.761 480.135 364.327 481.01 360.489 481.01C355.708 481.01 351.399 479.832 347.561 477.475C343.723 475.118 340.693 471.853 338.471 467.678C336.249 463.503 335.138 458.756 335.138 453.437C335.138 448.05 336.249 443.303 338.471 439.196C340.693 435.021 343.689 431.756 347.46 429.399C351.231 427.042 355.473 425.864 360.186 425.864C363.957 425.864 367.357 426.638 370.387 428.187C373.484 429.736 375.908 431.554 377.659 433.641V405.26H388.062ZM361.903 472.021C365.135 472.021 367.963 471.213 370.387 469.597C372.811 467.981 374.696 465.759 376.043 462.931C377.39 460.103 378.063 456.938 378.063 453.437C378.063 449.868 377.39 446.704 376.043 443.943C374.696 441.115 372.811 438.893 370.387 437.277C367.963 435.661 365.135 434.853 361.903 434.853C358.738 434.853 355.944 435.661 353.52 437.277C351.096 438.893 349.177 441.115 347.763 443.943C346.416 446.704 345.743 449.868 345.743 453.437C345.743 456.938 346.416 460.103 347.763 462.931C349.177 465.759 351.096 467.981 353.52 469.597C355.944 471.213 358.738 472.021 361.903 472.021ZM448.439 473.031H448.338C446.183 475.118 443.22 476.97 439.45 478.586C435.679 480.202 431.74 481.01 427.633 481.01C422.111 481.01 417.23 479.865 412.988 477.576C408.813 475.219 405.547 472.021 403.191 467.981C400.834 463.874 399.656 459.228 399.656 454.043C399.656 448.118 400.901 443.068 403.393 438.893C405.884 434.651 409.183 431.419 413.291 429.197C417.398 426.908 421.876 425.763 426.724 425.763C431.168 425.763 435.208 426.874 438.844 429.096C442.48 431.251 445.375 434.247 447.53 438.085C449.684 441.923 450.762 446.401 450.762 451.518L450.661 455.962H410.059C410.665 460.743 412.617 464.547 415.917 467.375C419.283 470.136 423.525 471.516 428.643 471.516C432.346 471.516 435.342 470.843 437.632 469.496C439.921 468.082 441.806 466.735 443.288 465.456L448.439 473.031ZM426.724 435.358C422.751 435.358 419.283 436.301 416.321 438.186C413.358 440.004 411.405 443.169 410.463 447.68H440.157V446.973C439.955 444.684 439.18 442.664 437.834 440.913C436.554 439.162 434.938 437.816 432.986 436.873C431.033 435.863 428.946 435.358 426.724 435.358ZM492.266 438.186C491.593 437.849 490.751 437.58 489.741 437.378C488.799 437.109 487.789 436.974 486.711 436.974C484.557 436.974 482.436 437.546 480.348 438.691C478.261 439.768 476.51 441.351 475.096 443.438C473.75 445.458 473.076 447.882 473.076 450.71V480H462.572V426.975H473.076V436.974C474.558 433.742 476.78 431.082 479.742 428.995C482.772 426.908 485.937 425.864 489.236 425.864C491.728 425.864 493.647 426.201 494.993 426.874L492.266 438.186Z" fill="white"/>
<path d="M349.388 502.455V517.155H346.476V514.887C346.028 515.503 345.365 516.082 344.488 516.623C343.611 517.164 342.593 517.435 341.436 517.435C340.204 517.435 339.075 517.108 338.048 516.455C337.04 515.802 336.237 514.896 335.64 513.739C335.043 512.582 334.744 511.256 334.744 509.763C334.744 508.27 335.052 506.954 335.668 505.815C336.284 504.658 337.133 503.762 338.216 503.127C339.299 502.474 340.531 502.147 341.912 502.147C342.939 502.147 343.835 502.371 344.6 502.819C345.384 503.267 346.009 503.79 346.476 504.387V502.455H349.388ZM342.108 514.775C343.004 514.775 343.788 514.56 344.46 514.131C345.132 513.683 345.655 513.086 346.028 512.339C346.401 511.574 346.588 510.715 346.588 509.763C346.588 508.83 346.401 507.99 346.028 507.243C345.655 506.496 345.132 505.908 344.46 505.479C343.788 505.031 343.004 504.807 342.108 504.807C341.249 504.807 340.484 505.022 339.812 505.451C339.14 505.88 338.617 506.468 338.244 507.215C337.871 507.962 337.684 508.811 337.684 509.763C337.684 510.715 337.871 511.574 338.244 512.339C338.617 513.086 339.14 513.683 339.812 514.131C340.484 514.56 341.249 514.775 342.108 514.775ZM361.227 502.203C362.533 502.203 363.7 502.53 364.727 503.183C365.772 503.818 366.593 504.704 367.191 505.843C367.788 506.982 368.087 508.298 368.087 509.791C368.087 511.266 367.788 512.582 367.191 513.739C366.593 514.878 365.781 515.774 364.755 516.427C363.728 517.08 362.58 517.407 361.311 517.407C360.265 517.407 359.313 517.183 358.455 516.735C357.615 516.287 356.952 515.774 356.467 515.195V523.315H353.555V502.427H356.467V504.583C356.896 503.967 357.54 503.416 358.399 502.931C359.257 502.446 360.2 502.203 361.227 502.203ZM360.835 504.863C359.957 504.863 359.173 505.078 358.483 505.507C357.811 505.936 357.279 506.524 356.887 507.271C356.513 507.999 356.327 508.839 356.327 509.791C356.327 510.724 356.513 511.564 356.887 512.311C357.279 513.058 357.811 513.655 358.483 514.103C359.173 514.532 359.957 514.747 360.835 514.747C361.712 514.747 362.487 514.532 363.159 514.103C363.831 513.655 364.353 513.058 364.727 512.311C365.119 511.564 365.315 510.724 365.315 509.791C365.315 508.839 365.119 507.999 364.727 507.271C364.353 506.524 363.831 505.936 363.159 505.507C362.487 505.078 361.712 504.863 360.835 504.863ZM371.359 517.155V496.435H374.243V517.155H371.359ZM380.431 499.263C379.777 499.263 379.292 499.095 378.975 498.759C378.657 498.423 378.499 497.984 378.499 497.443C378.499 496.976 378.657 496.556 378.975 496.183C379.292 495.81 379.777 495.623 380.431 495.623C381.084 495.623 381.569 495.791 381.887 496.127C382.204 496.463 382.363 496.902 382.363 497.443C382.363 497.91 382.204 498.33 381.887 498.703C381.569 499.076 381.084 499.263 380.431 499.263ZM381.915 517.155H379.031V502.455H381.915V517.155ZM388.28 509.791C388.28 510.762 388.494 511.63 388.924 512.395C389.372 513.142 389.95 513.739 390.66 514.187C391.388 514.616 392.162 514.831 392.984 514.831C393.917 514.831 394.729 514.588 395.42 514.103C396.11 513.618 396.67 513.114 397.1 512.591L398.696 514.551C398.341 515.055 397.856 515.531 397.24 515.979C396.624 516.408 395.924 516.763 395.14 517.043C394.356 517.304 393.534 517.435 392.676 517.435C391.332 517.435 390.118 517.099 389.036 516.427C387.953 515.755 387.094 514.84 386.46 513.683C385.844 512.526 385.536 511.228 385.536 509.791C385.536 508.335 385.844 507.038 386.46 505.899C387.094 504.742 387.953 503.827 389.036 503.155C390.118 502.483 391.332 502.147 392.676 502.147C394.038 502.147 395.252 502.427 396.316 502.987C397.38 503.528 398.173 504.238 398.696 505.115L397.1 507.075C396.67 506.44 396.054 505.899 395.252 505.451C394.468 504.984 393.702 504.751 392.956 504.751C392.078 504.751 391.285 504.975 390.576 505.423C389.866 505.852 389.306 506.45 388.896 507.215C388.485 507.962 388.28 508.82 388.28 509.791ZM415.248 502.455V517.155H412.336V514.887C411.888 515.503 411.225 516.082 410.348 516.623C409.471 517.164 408.453 517.435 407.296 517.435C406.064 517.435 404.935 517.108 403.908 516.455C402.9 515.802 402.097 514.896 401.5 513.739C400.903 512.582 400.604 511.256 400.604 509.763C400.604 508.27 400.912 506.954 401.528 505.815C402.144 504.658 402.993 503.762 404.076 503.127C405.159 502.474 406.391 502.147 407.772 502.147C408.799 502.147 409.695 502.371 410.46 502.819C411.244 503.267 411.869 503.79 412.336 504.387V502.455H415.248ZM407.968 514.775C408.864 514.775 409.648 514.56 410.32 514.131C410.992 513.683 411.515 513.086 411.888 512.339C412.261 511.574 412.448 510.715 412.448 509.763C412.448 508.83 412.261 507.99 411.888 507.243C411.515 506.496 410.992 505.908 410.32 505.479C409.648 505.031 408.864 504.807 407.968 504.807C407.109 504.807 406.344 505.022 405.672 505.451C405 505.88 404.477 506.468 404.104 507.215C403.731 507.962 403.544 508.811 403.544 509.763C403.544 510.715 403.731 511.574 404.104 512.339C404.477 513.086 405 513.683 405.672 514.131C406.344 514.56 407.109 514.775 407.968 514.775ZM424.119 517.155H421.235V505.255H418.183V502.455H421.235V498.703H424.119V502.455H427.535V505.255H424.119V517.155ZM432.233 499.263C431.58 499.263 431.094 499.095 430.777 498.759C430.46 498.423 430.301 497.984 430.301 497.443C430.301 496.976 430.46 496.556 430.777 496.183C431.094 495.81 431.58 495.623 432.233 495.623C432.886 495.623 433.372 495.791 433.689 496.127C434.006 496.463 434.165 496.902 434.165 497.443C434.165 497.91 434.006 498.33 433.689 498.703C433.372 499.076 432.886 499.263 432.233 499.263ZM433.717 517.155H430.833V502.455H433.717V517.155ZM439.942 502.455L444.226 512.955L448.678 502.455H451.646L445.122 517.155H443.05L436.834 502.455H439.942ZM468.099 509.791C468.099 511.284 467.763 512.61 467.091 513.767C466.437 514.906 465.541 515.802 464.403 516.455C463.283 517.108 462.023 517.435 460.623 517.435C459.223 517.435 457.953 517.108 456.815 516.455C455.676 515.802 454.771 514.906 454.099 513.767C453.445 512.61 453.119 511.284 453.119 509.791C453.119 508.298 453.445 506.982 454.099 505.843C454.771 504.686 455.676 503.78 456.815 503.127C457.953 502.474 459.223 502.147 460.623 502.147C462.023 502.147 463.283 502.474 464.403 503.127C465.541 503.78 466.437 504.686 467.091 505.843C467.763 506.982 468.099 508.298 468.099 509.791ZM465.159 509.791C465.177 508.802 464.981 507.934 464.571 507.187C464.179 506.422 463.637 505.834 462.947 505.423C462.256 504.994 461.481 504.779 460.623 504.779C459.764 504.779 458.98 504.994 458.271 505.423C457.58 505.834 457.029 506.422 456.619 507.187C456.227 507.934 456.04 508.802 456.059 509.791C456.04 510.762 456.227 511.63 456.619 512.395C457.029 513.142 457.58 513.73 458.271 514.159C458.98 514.588 459.764 514.803 460.623 514.803C461.481 514.803 462.256 514.588 462.947 514.159C463.637 513.73 464.179 513.142 464.571 512.395C464.981 511.63 465.177 510.762 465.159 509.791ZM479.865 506.319C479.342 505.796 478.745 505.367 478.073 505.031C477.42 504.695 476.813 504.527 476.253 504.527C475.861 504.527 475.469 504.574 475.077 504.667C474.704 504.76 474.386 504.938 474.125 505.199C473.864 505.442 473.733 505.806 473.733 506.291C473.752 506.963 474.05 507.439 474.629 507.719C475.226 507.999 475.964 508.251 476.841 508.475C477.606 508.68 478.353 508.942 479.081 509.259C479.809 509.558 480.406 510.006 480.873 510.603C481.358 511.182 481.601 512.003 481.601 513.067C481.601 513.982 481.34 514.766 480.817 515.419C480.313 516.072 479.65 516.576 478.829 516.931C478.026 517.267 477.177 517.435 476.281 517.435C475.217 517.435 474.162 517.248 473.117 516.875C472.09 516.483 471.213 515.82 470.485 514.887L472.445 513.207C472.949 513.786 473.518 514.243 474.153 514.579C474.806 514.896 475.6 515.055 476.533 515.055C476.888 515.055 477.242 514.999 477.597 514.887C477.952 514.756 478.25 514.56 478.493 514.299C478.754 514.019 478.885 513.646 478.885 513.179C478.885 512.731 478.745 512.386 478.465 512.143C478.204 511.882 477.849 511.676 477.401 511.527C476.953 511.359 476.458 511.21 475.917 511.079C475.114 510.855 474.321 510.584 473.537 510.267C472.772 509.931 472.128 509.464 471.605 508.867C471.101 508.251 470.849 507.42 470.849 506.375C470.849 505.498 471.092 504.751 471.577 504.135C472.081 503.5 472.734 503.015 473.537 502.679C474.34 502.324 475.198 502.147 476.113 502.147C476.99 502.147 477.942 502.334 478.969 502.707C479.996 503.08 480.845 503.678 481.517 504.499L479.865 506.319Z" fill="#529DDC"/>
<rect x="500.229" y="407.101" width="20.256" height="20.2326" rx="2" fill="#529DDC"/>
<rect x="521.611" y="423.961" width="48.3893" height="47.2093" rx="2" fill="#529DDC"/>
<rect x="494.603" y="474.543" width="37.136" height="37.093" rx="2" fill="#529DDC"/>
</svg>
